<svg xmlns="http://www.w3.org/2000/svg" viewBox="0 0 1920 1080" width="1920" height="1080"><g transform="translate(-1.0 0.0) rotate(0.0 960.0 540.0) scale(1.0 1.0)"><svg width="1920" height="1080" viewBox="0 0 1920 1080"><path d="M0 0h1920v1080H0z" fill="#E0719E"/><path d="M224 160a4 4 0 0 0-4 4v752a4 4 0 0 0 4 4h1473a4 4 0 0 0 4-4V164a4 4 0 0 0-4-4zm1231.833 10h112.584v115h-112.584zm112.584 240h-112.584V295h112.584zm0 125h-112.584V420h112.584zm0 125h-112.584V545h112.584zm0 125h-112.584V670h112.584zM352.583 670h112.584v115H352.583zm0-125h112.584v115H352.583zm0-125h112.584v115H352.583zm0-125h112.584v115H352.583zm1093.25 115H1333.25V295h112.583zm0 125H1333.25V420h112.583zm0 125H1333.25V545h112.583zM475.167 545H587.75v115H475.167zm0-125H587.75v115H475.167zm848.083 115h-112.583V420h112.583zm-122.583 0h-112.584V420h112.584zm-122.584 0H965.5V420h112.583zM955.5 535H842.917V420H955.5zm-122.583 0H720.333V420h112.584zm-122.584 0H597.75V420h112.583zM597.75 545h112.583v115H597.75zm122.583 0h112.584v115H720.333zm122.584 0H955.5v115H842.917zm122.583 0h112.583v115H965.5zm122.583 0h112.584v115h-112.584zm122.584 0h112.583v115h-112.583zm112.583-135h-112.583V295h112.583zm-122.583 0h-112.584V295h112.584zm-122.584 0H965.5V295h112.583zM955.5 410H842.917V295H955.5zm-122.583 0H720.333V295h112.584zm-122.584 0H597.75V295h112.583zm-122.583 0H475.167V295H587.75zM475.167 670H587.75v115H475.167zm122.583 0h112.583v115H597.75zm122.583 0h112.584v115H720.333zm122.584 0H955.5v115H842.917zm122.583 0h112.583v115H965.5zm122.583 0h112.584v115h-112.584zm122.584 0h112.583v115h-112.583zm122.583 0h112.583v115H1333.25zm0-500h112.583v115H1333.25zm-122.583 0h112.583v115h-112.583zm-122.584 0h112.584v115h-112.584zM965.5 170h112.583v115H965.5zm-122.583 0H955.5v115H842.917zm-122.584 0h112.584v115H720.333zm-122.583 0h112.583v115H597.75zm-122.583 0H587.75v115H475.167zm-122.584 0h112.584v115H352.583zM230 170h112.583v115H230zm0 125h112.583v115H230zm0 125h112.583v115H230zm0 125h112.583v115H230zm0 125h112.583v115H230zm112.583 240H230V795h112.583zm122.584 0H352.583V795h112.584zm122.583 0H475.167V795H587.75zm122.583 0H597.75V795h112.583zm122.584 0H720.333V795h112.584zm122.583 0H842.917V795H955.5zm122.583 0H965.5V795h112.583zm122.584 0h-112.584V795h112.584zm122.583 0h-112.583V795h112.583zm122.583 0H1333.25V795h112.583zm122.584 0h-112.584V795h112.584zM1691 910h-112.583V795H1691zm0-125h-112.583V670H1691zm0-125h-112.583V545H1691zm0-125h-112.583V420H1691zm0-125h-112.583V295H1691zm-112.583-125V170H1691v115z" fill="#CD519E"/></svg></g><g transform="translate(1046.0 471.0) rotate(0.0 327.0 225.0) scale(1.0 1.0)"><svg width="654" height="450" viewBox="0 0 654 450"><g fill="#f3f6e6"><path d="M5 445h644V5s-25 153.4-200.9 199.9C235.1 261.2 424.9 394.7 5 445z"/><path d="M649 450H5c-2.6 0-4.8-2.1-5-4.7s1.8-4.9 4.4-5.3c111.1-13.3 188.8-33.6 237.7-62.1 42.5-24.8 58.4-52.8 73.9-79.8 21.9-38.4 42.6-74.7 130.9-98 39.4-10.4 74.2-27.2 103.6-49.8 23.5-18.1 43.6-40 59.6-65.1 27.5-42.8 33.9-80.6 34-81 .4-2.6 2.7-4.4 5.3-4.2 2.6.2 4.6 2.4 4.6 5v440c0 2.8-2.2 5-5 5zM75 440h569V40c-5.4 14.2-13.4 31.6-25.3 50.2-16.7 26.1-37.6 48.9-62 67.8-30.5 23.5-66.6 41-107.4 51.7-84.1 22.3-103.8 56.8-124.7 93.3-16.1 28.2-32.7 57.3-77.5 83.5-39 22.8-95.7 40.4-172.1 53.5z"/></g></svg></g><g transform="translate(1395.0 478.0) rotate(0.0 -267.5 221.5) scale(-0.9109484079686703 0.911522633744856)"><svg width="587.3" height="486" viewBox="0 0 587.3 486"><circle cx="564.5" cy="187.4" fill="#383a48" r="4.2"/><circle cx="564.5" cy="224.2" fill="#383a48" r="4.2"/><circle cx="564.5" cy="261" fill="#383a48" r="4.2"/><circle cx="564.5" cy="297.8" fill="#383a48" r="4.2"/><circle cx="564.5" cy="334.6" fill="#383a48" r="4.2"/><circle cx="564.5" cy="371.4" fill="#383a48" r="4.2"/><circle cx="564.5" cy="408.2" fill="#383a48" r="4.2"/><circle cx="564.5" cy="445.1" fill="#383a48" r="4.2"/><path d="M256.5 159.5h325.7V481H256.5z" fill="#f3f6e6"/><g fill="#383a48"><path d="M582.2 486H256.5c-2.8 0-5-2.2-5-5V159.5c0-2.8 2.2-5 5-5h325.7c2.8 0 5 2.2 5 5V481c0 2.7-2.3 5-5 5zm-320.7-10h315.7V164.5H261.5z"/><circle cx="527.7" cy="187.4" r="4.2"/><circle cx="527.7" cy="224.2" r="4.2"/><circle cx="527.7" cy="261" r="4.2"/><circle cx="527.7" cy="297.8" r="4.2"/><circle cx="527.7" cy="334.6" r="4.2"/><circle cx="527.7" cy="371.4" r="4.2"/><circle cx="527.7" cy="408.2" r="4.2"/><circle cx="527.7" cy="445.1" r="4.2"/><circle cx="490.9" cy="187.4" r="4.2"/><circle cx="490.9" cy="224.2" r="4.2"/><circle cx="490.9" cy="261" r="4.2"/><circle cx="490.9" cy="297.8" r="4.2"/><circle cx="490.9" cy="334.6" r="4.2"/><circle cx="490.9" cy="371.4" r="4.2"/><circle cx="490.9" cy="408.2" r="4.2"/><circle cx="490.9" cy="445.1" r="4.2"/><circle cx="454.1" cy="187.4" r="4.2"/><circle cx="454.1" cy="224.2" r="4.2"/><circle cx="454.1" cy="261" r="4.2"/><circle cx="454.1" cy="297.8" r="4.2"/><circle cx="454.1" cy="334.6" r="4.2"/><circle cx="454.1" cy="371.4" r="4.2"/><circle cx="454.1" cy="408.2" r="4.2"/><circle cx="454.1" cy="445.1" r="4.2"/><circle cx="417.3" cy="187.4" r="4.2"/><circle cx="417.3" cy="224.2" r="4.2"/><circle cx="417.3" cy="261" r="4.2"/><circle cx="417.3" cy="297.8" r="4.2"/><circle cx="417.3" cy="334.6" r="4.2"/><circle cx="417.3" cy="371.4" r="4.2"/><circle cx="417.3" cy="408.2" r="4.2"/><circle cx="417.3" cy="445.1" r="4.2"/><circle cx="380.5" cy="187.4" r="4.2"/><circle cx="380.5" cy="224.2" r="4.2"/><circle cx="380.5" cy="261" r="4.2"/><circle cx="380.5" cy="297.8" r="4.2"/><circle cx="380.5" cy="334.6" r="4.2"/><circle cx="380.5" cy="371.4" r="4.2"/><circle cx="380.5" cy="408.2" r="4.2"/><circle cx="380.5" cy="445.1" r="4.2"/><circle cx="343.6" cy="187.4" r="4.2"/><circle cx="343.6" cy="224.2" r="4.2"/><circle cx="343.6" cy="261" r="4.2"/><circle cx="343.6" cy="297.8" r="4.2"/><circle cx="343.6" cy="334.6" r="4.2"/><circle cx="343.6" cy="371.4" r="4.2"/><circle cx="343.6" cy="408.2" r="4.2"/><circle cx="343.6" cy="445.1" r="4.2"/></g><path d="M256.5 159.5 167.9 5h251.4l162.9 154.5z" fill="#eebed3"/><path d="M582.2 164.5H256.5c-1.8 0-3.4-1-4.3-2.5L163.6 7.5c-.9-1.5-.9-3.5 0-5s2.5-2.5 4.3-2.5h251.5c1.3 0 2.5.5 3.4 1.4l162.9 154.5c1.5 1.4 2 3.6 1.2 5.5-.8 1.8-2.7 3.1-4.7 3.1zm-322.8-10h310.3L417.3 10H176.5z" fill="#383a48"/><circle cx="517" cy="130.4" fill="#383a48" r="4.3"/><circle cx="479.3" cy="92.6" fill="#383a48" r="4.3"/><circle cx="479.3" cy="130.4" fill="#383a48" r="4.3"/><circle cx="441.5" cy="54.9" fill="#383a48" r="4.3"/><circle cx="441.5" cy="92.6" fill="#383a48" r="4.3"/><circle cx="441.5" cy="130.4" fill="#383a48" r="4.3"/><circle cx="403.8" cy="17.1" fill="#383a48" r="4.3"/><circle cx="403.8" cy="54.9" fill="#383a48" r="4.3"/><circle cx="403.8" cy="92.6" fill="#383a48" r="4.3"/><circle cx="403.8" cy="130.4" fill="#383a48" r="4.3"/><circle cx="366" cy="17.1" fill="#383a48" r="4.3"/><circle cx="366" cy="54.9" fill="#383a48" r="4.3"/><circle cx="366" cy="92.6" fill="#383a48" r="4.3"/><circle cx="366" cy="130.4" fill="#383a48" r="4.3"/><circle cx="328.3" cy="17.1" fill="#383a48" r="4.3"/><circle cx="328.3" cy="54.9" fill="#383a48" r="4.3"/><circle cx="328.3" cy="92.6" fill="#383a48" r="4.3"/><circle cx="328.3" cy="130.4" fill="#383a48" r="4.3"/><circle cx="290.5" cy="17.1" fill="#383a48" r="4.3"/><circle cx="290.5" cy="54.9" fill="#383a48" r="4.3"/><circle cx="290.5" cy="92.6" fill="#383a48" r="4.3"/><circle cx="252.8" cy="17.1" fill="#383a48" r="4.3"/><circle cx="252.8" cy="54.9" fill="#383a48" r="4.3"/><circle cx="215.1" cy="17.1" fill="#383a48" r="4.3"/><path d="M5 159.5h325.7V481H5z" fill="#f3f6e6"/><path d="M330.7 486H5c-2.8 0-5-2.2-5-5V159.5c0-2.8 2.2-5 5-5h325.7c2.8 0 5 2.2 5 5V481c0 2.7-2.2 5-5 5zM10 476h315.7V164.5H10z" fill="#383a48"/><path d="M5 159.5 167.9 5l162.8 154.5z" fill="#eebed3"/><path d="M330.7 164.5H5c-2 0-3.9-1.2-4.6-3.1-.8-1.9-.3-4.1 1.2-5.5L164.5 1.4c1.9-1.8 5-1.8 6.9 0l162.9 154.5c1.5 1.4 2 3.6 1.2 5.5-.9 1.8-2.7 3.1-4.8 3.1zm-313.2-10h300.6L167.9 11.9zm204 121.9H114.2c-2.8 0-5 2.2-5 5v199.5c0 2.8 2.2 5 5 5h107.4c2.8 0 5-2.2 5-5V281.4c-.1-2.7-2.3-5-5.1-5z" fill="#383a48"/></svg></g><g transform="translate(870.0 608.0) rotate(0.0 -327.0 -225.0) scale(-1.0 -1.0)"><svg width="654" height="450" viewBox="0 0 654 450"><g fill="#f3f6e6"><path d="M5 445h644V5s-25 153.4-200.9 199.9C235.1 261.2 424.9 394.7 5 445z"/><path d="M649 450H5c-2.6 0-4.8-2.1-5-4.7s1.8-4.9 4.4-5.3c111.1-13.3 188.8-33.6 237.7-62.1 42.5-24.8 58.4-52.8 73.9-79.8 21.9-38.4 42.6-74.7 130.9-98 39.4-10.4 74.2-27.2 103.6-49.8 23.5-18.1 43.6-40 59.6-65.1 27.5-42.8 33.9-80.6 34-81 .4-2.6 2.7-4.4 5.3-4.2 2.6.2 4.6 2.4 4.6 5v440c0 2.8-2.2 5-5 5zM75 440h569V40c-5.4 14.2-13.4 31.6-25.3 50.2-16.7 26.1-37.6 48.9-62 67.8-30.5 23.5-66.6 41-107.4 51.7-84.1 22.3-103.8 56.8-124.7 93.3-16.1 28.2-32.7 57.3-77.5 83.5-39 22.8-95.7 40.4-172.1 53.5z"/></g></svg></g><g transform="translate(526.0 241.0) rotate(0.0 226.0 340.0) scale(0.9112903225806451 0.9111617312072894)"><svg width="496" height="746.3" viewBox="0 0 496 746.3"><path d="M476.8 26.1C462.3 9.2 441.3 0 417.9 0H223.1c-49.4 0-95.7 41.6-103.3 92.8L36.9 652c-3.8 26 2.6 50.2 18.1 68.2 14.5 16.9 35.5 26.1 58.9 26.1h194.8c49.4 0 95.7-41.6 103.3-92.8l82.9-559.2c3.8-26-2.6-50.2-18.1-68.2z" fill="#383a48"/><path d="M382 5H187.3C140.2 5 96.2 44.7 89 93.6L6.1 652.8c-7.3 48.9 25 88.6 72.1 88.6H273c47.1 0 91.1-39.7 98.3-88.6l82.9-559.2C461.4 44.6 429.1 5 382 5z" fill="#AAC6FC"/><g fill="#383a48"><path d="M272.8 746.3H78.1c-23.4 0-44.4-9.3-58.9-26.1-15.5-18-22-42.2-18.1-68.2L84 92.8C91.6 41.6 137.9 0 187.3 0h194.8c23.4 0 44.4 9.3 58.9 26.1 15.5 18 22 42.2 18.1 68.2l-82.9 559.2c-7.7 51.2-54 92.8-103.4 92.8zM187.3 10c-44.6 0-86.5 37.8-93.4 84.3L11 653.5c-3.4 23 2.2 44.4 15.8 60.2 12.6 14.6 30.8 22.7 51.3 22.7h194.8c44.6 0 86.5-37.8 93.4-84.3l82.9-559.2c3.4-23-2.2-44.4-15.8-60.2C420.8 18.1 402.6 10 382.1 10z"/><path d="M382 0H181.6c-2.8 0-5 2.2-5 5s2.2 5 5 5h15.5c2.7 0 5.1 1 6.7 2.9 1.8 2.1 2.5 5 2.1 8.2-.9 6 .7 11.9 4.4 16.2 3.5 4.1 8.6 6.4 14.3 6.4h110.2c11.5 0 21.9-9.3 23.7-21.1 1-6.8 7.3-12.6 13.8-12.6h9.9c2.8 0 5-2.2 5-5-.2-2.8-2.4-5-5.2-5zM259.7 716.6H100c-2.8 0-5-2.2-5-5s2.2-5 5-5h159.6c2.8 0 5 2.2 5 5s-2.2 5-4.9 5z"/></g></svg></g><g transform="translate(1251.0 184.0) rotate(0.0 133.5 133.5) scale(0.9181568088033012 0.9181568088033012)"><svg width="290.8" height="290.8" viewBox="0 0 290.8 290.8"><circle cx="145.4" cy="145.4" fill="#f6e049" r="140.4"/><g fill="#383a48"><path d="M145.4 290.8C65.2 290.8 0 225.6 0 145.4S65.2 0 145.4 0s145.4 65.2 145.4 145.4-65.2 145.4-145.4 145.4zm0-280.8C70.7 10 10 70.7 10 145.4s60.7 135.4 135.4 135.4 135.4-60.7 135.4-135.4S220.1 10 145.4 10z"/><path d="M100.3 159.5c7.8 29 25.1 40.9 45.2 40.9s37.3-11.9 45.2-40.9z"/><path d="M145.5 205.4c-24.5 0-42.3-15.8-50-44.6-.4-1.5-.1-3.1.9-4.3s2.4-2 4-2h90.4c1.6 0 3 .7 4 2 .9 1.2 1.3 2.8.9 4.3-8 28.8-25.8 44.6-50.2 44.6zm-38.4-40.9c7.2 20.3 20.3 30.9 38.4 30.9 18 0 31.2-10.7 38.4-30.9z"/></g><path d="M111.9 184.2h67c8.3-9.7 11.7-24.8 11.7-24.8h-90.3c0 .1 4.2 16.3 11.6 24.8z" fill="#f3f6e6"/><path d="M178.9 189.2h-67c-1.4 0-2.8-.6-3.8-1.7-8.3-9.5-12.8-26.8-12.8-28.1 0-2.8 2.2-5 5-5h90.3c1.5 0 3 .7 3.9 1.9s1.3 2.7 1 4.2c-.2.7-3.8 16.4-12.8 27-.9 1.1-2.3 1.7-3.8 1.7zm-64.6-10h62.2c3.5-4.7 5.9-10.5 7.4-14.8h-76.8c1.6 4.6 4.1 10.5 7.2 14.8z" fill="#383a48"/><path d="M176.2 131.1c0-8 6.5-14.5 14.5-14.5s14.5 6.5 14.5 14.5" fill="#f6e049"/><path d="M205.2 136.1c-2.8 0-5-2.2-5-5 0-5.2-4.3-9.5-9.5-9.5s-9.5 4.3-9.5 9.5c0 2.8-2.2 5-5 5s-5-2.2-5-5c0-10.8 8.7-19.5 19.5-19.5s19.5 8.7 19.5 19.5c0 2.8-2.2 5-5 5z" fill="#383a48"/><path d="M114.7 131.1c0-8-6.5-14.5-14.5-14.5s-14.5 6.5-14.5 14.5" fill="#f6e049"/><path d="M114.7 136.1c-2.8 0-5-2.2-5-5 0-5.2-4.3-9.5-9.5-9.5s-9.5 4.3-9.5 9.5c0 2.8-2.2 5-5 5s-5-2.2-5-5c0-10.8 8.7-19.5 19.5-19.5s19.5 8.7 19.5 19.5c0 2.8-2.2 5-5 5z" fill="#383a48"/></svg></g><g transform="translate(684.0 533.0) rotate(8.423504317852554 -209.5 149.5) scale(-0.9404571654306799 0.9450421634195988)"><svg width="445.528" height="316.388" viewBox="0 0 445.528 316.388"><path d="M440.628 5.088v220.2c-39.2 9.1-71.9 27.7-96.3 45.8-38.9 28.6-86.4 43.1-134.5 40.1l-65-4.01V31.408c113.74-14.82 208.72 19.94 295.8-26.32z" fill="#f6e049"/><path d="M443.128.688a5.024 5.024 0 0 0-4.9-.1c-52.4 27.9-106.9 25.7-169.9 23.2-38.81-1.55-79.77-3.17-123.5 2.44v10.18c43.64-5.77 84.51-4.15 123.2-2.62 59 2.4 114.9 4.6 167.6-20.6v208.2c-32.7 8.2-64.4 23.5-94.3 45.6a200.593 200.593 0 0 1-131.2 39.1l-65.3-4.03V312l64.7 3.99c4.2.3 8.4.4 12.6.4a210.848 210.848 0 0 0 125-41.4c30.1-22.1 61.8-37.2 94.5-44.8a5.109 5.109 0 0 0 3.9-4.9V4.988a4.951 4.951 0 0 0-2.4-4.3z" fill="#383a48"/><path d="m173.328 68.691-133.1 45.2a51.853 51.853 0 0 0-32.4 65.8 51.853 51.853 0 0 0 65.8 32.4l59.4-20.2a104.79 104.79 0 0 1 86.6 8.5c20.6 12 50.8 19.2 88.1-1.3" fill="#f6e049"/><path d="M56.828 219.891a56.853 56.853 0 0 1-18.2-110.7l133.1-45.2a4.965 4.965 0 1 1 3.2 9.4l-133.1 45.2a46.9 46.9 0 0 0-27 23.6 45.934 45.934 0 0 0-2.3 35.8 46.9 46.9 0 0 0 23.6 27 46.373 46.373 0 0 0 35.8 2.3l59.4-20.2a110.016 110.016 0 0 1 90.7 8.9c26.1 15.1 54.1 14.7 83.2-1.4a5.012 5.012 0 0 1 4.8 8.8c-40.4 22.2-72.9 12.9-93.1 1.3a100.169 100.169 0 0 0-82.5-8.1l-59.4 20.2a53.558 53.558 0 0 1-18.2 3.1z" fill="#383a48"/></svg></g><g transform="translate(1183.0 199.0) rotate(0.0 23.0 25.5) scale(1.0176991150442478 1.0)"><svg width="45.2" height="51" viewBox="0 0 45.2 51"><path d="M40.2 20.5C28.8 20.5 27.6 9.6 27.6 5a5 5 0 0 0-10 0c0 4.7-1.2 15.5-12.6 15.5a5 5 0 0 0 0 10c11.4 0 12.6 10.9 12.6 15.5a5 5 0 0 0 10 0c0-4.7 1.2-15.5 12.6-15.5a4.951 4.951 0 0 0 5-5 5.015 5.015 0 0 0-5-5z" fill="#F3F6E6"/></svg></g><g transform="translate(1549.0 264.0) rotate(0.0 23.0 25.5) scale(1.0176991150442478 1.0)"><svg width="45.2" height="51" viewBox="0 0 45.2 51"><path d="M40.2 20.5C28.8 20.5 27.6 9.6 27.6 5a5 5 0 0 0-10 0c0 4.7-1.2 15.5-12.6 15.5a5 5 0 0 0 0 10c11.4 0 12.6 10.9 12.6 15.5a5 5 0 0 0 10 0c0-4.7 1.2-15.5 12.6-15.5a4.951 4.951 0 0 0 5-5 5.015 5.015 0 0 0-5-5z" fill="#F3F6E6"/></svg></g><g transform="translate(1609.0 387.0) rotate(0.0 23.0 25.5) scale(1.0176991150442478 1.0)"><svg width="45.2" height="51" viewBox="0 0 45.2 51"><path d="M40.2 20.5C28.8 20.5 27.6 9.6 27.6 5a5 5 0 0 0-10 0c0 4.7-1.2 15.5-12.6 15.5a5 5 0 0 0 0 10c11.4 0 12.6 10.9 12.6 15.5a5 5 0 0 0 10 0c0-4.7 1.2-15.5 12.6-15.5a4.951 4.951 0 0 0 5-5 5.015 5.015 0 0 0-5-5z" fill="#F3F6E6"/></svg></g><g transform="translate(1488.0 455.0) rotate(0.0 23.0 25.5) scale(1.0176991150442478 1.0)"><svg width="45.2" height="51" viewBox="0 0 45.2 51"><path d="M40.2 20.5C28.8 20.5 27.6 9.6 27.6 5a5 5 0 0 0-10 0c0 4.7-1.2 15.5-12.6 15.5a5 5 0 0 0 0 10c11.4 0 12.6 10.9 12.6 15.5a5 5 0 0 0 10 0c0-4.7 1.2-15.5 12.6-15.5a4.951 4.951 0 0 0 5-5 5.015 5.015 0 0 0-5-5z" fill="#F3F6E6"/></svg></g><g transform="translate(1117.0 326.0) rotate(0.0 23.0 25.5) scale(1.0176991150442478 1.0)"><svg width="45.2" height="51" viewBox="0 0 45.2 51"><path d="M40.2 20.5C28.8 20.5 27.6 9.6 27.6 5a5 5 0 0 0-10 0c0 4.7-1.2 15.5-12.6 15.5a5 5 0 0 0 0 10c11.4 0 12.6 10.9 12.6 15.5a5 5 0 0 0 10 0c0-4.7 1.2-15.5 12.6-15.5a4.951 4.951 0 0 0 5-5 5.015 5.015 0 0 0-5-5z" fill="#F3F6E6"/></svg></g><g transform="translate(617.0 427.0) rotate(0.0 130.0 96.0) scale(0.8960339092315581 0.8959975509400274)"><svg width="290.168" height="214.286" viewBox="0 0 290.168 214.286"><path d="M110.774 209.286q-1.537 0-3.083-.146a32.5 32.5 0 0 1-23.654-13.874L10.752 89.239A32.5 32.5 0 0 1 64.223 52.28l51.333 74.269L229.918 14.288a32.5 32.5 0 1 1 45.534 46.387L133.539 199.979a32.5 32.5 0 0 1-22.765 9.307z" fill="#e06e9c"/><g fill="#383a47"><path d="M110.774 214.286a37.49 37.49 0 0 1-3.56-.169 37.424 37.424 0 0 1-27.29-16.008L6.639 92.082a37.5 37.5 0 0 1 61.698-42.644l47.956 69.382 110.122-108.1a37.5 37.5 0 1 1 52.54 53.523L137.042 203.548a37.287 37.287 0 0 1-26.268 10.738zM37.447 43.27a27.488 27.488 0 0 0-22.581 43.128L88.15 192.423a27.443 27.443 0 0 0 20.015 11.74 27.6 27.6 0 0 0 2.61.123 27.34 27.34 0 0 0 19.26-7.875L271.95 57.107a27.5 27.5 0 1 0-38.53-39.25l-114.36 112.26a5 5 0 0 1-7.616-.725L60.11 55.123A27.495 27.495 0 0 0 37.447 43.27z"/><path d="M146.467 95.153a5.001 5.001 0 0 0-6.504.431l-27.91 27.397a5.001 5.001 0 0 0-.577 6.459l7.498 10.585a5 5 0 0 0 4.08 2.109c.102 0 .205-.003.308-.01a5 5 0 0 0 4.097-2.623l20.41-37.981a5 5 0 0 0-1.402-6.367z"/></g></svg></g></svg>