<svg xmlns="http://www.w3.org/2000/svg" viewBox="0 0 3000 3000" width="3000" height="3000"><g transform="translate(1076.0 454.0) rotate(0.0 693.0 1105.0) scale(1.9998989950002526 1.998695873552189)"><svg width="693.035" height="1105.721" viewBox="0 0 693.035 1105.721"><path d="M690.002 86.935C676.042 65.967 548.7 38.727 428.691 21.033 359.28 10.799 292.655 3.729 241.093 1.124c-59.687-3.014-95.43-.019-106.23 8.906-25.206 20.83-67.211 283.046-79.485 362.917C24.896 571.298 2.738 766.349.24 858.304c-1.276 47.006 2.812 56.349 5.998 59.287 19.292 17.79 179.018 80.513 227.513 99.313 100.163 38.831 218.348 81.759 250.431 88.677.45.097.899.146 1.352.146 3.303 0 6.681-2.595 10.283-7.883 31.445-46.173 89.095-310.8 128.908-523.381 22.565-120.487 41.791-235.778 54.134-324.637 13.7-98.616 17.449-153.42 11.145-162.89z" fill="#1e1e1e"/></svg></g><g transform="translate(1342.0 2324.0) rotate(0.0 82.0 93.0) scale(2.0295271449255634 1.9868610799551356)"><svg width="80.807" height="93.615" viewBox="0 0 80.807 93.615"><path d="M51.125 5.235C43.734.533 38.494-.983 35.106.601 25.297 5.188 0 50.058 0 57.458 0 64.58 21.498 84.96 31.353 91.012c2.859 1.755 5.043 2.605 6.781 2.605.735 0 1.391-.152 1.983-.453 6.384-3.238 40.689-41.852 40.689-54.084 0-9.268-17.288-25.958-29.682-33.845z" fill="#ffd04d"/></svg></g><g transform="translate(932.0 310.0) rotate(17.840373134544965 684.0 1042.0) scale(3.633861854810218 3.648587135403901)"><svg width="376.459" height="571.18" viewBox="0 0 376.459 571.18"><path d="M88.369 550.024c19.447 9.042 246.018 21.38 279.381 18.122 27.277-2.663-42.943-545.858-63.257-562.075S21.086 32.681 4.726 58.178 66.816 540 88.369 550.024z" fill="#3054e5"/><path d="M349.741 571.186c-29.058 0-81.144-2.229-127.05-4.993-28.424-1.711-122.19-7.771-135.376-13.9-2.7-1.258-6.437-5.874-13.608-30.574-14.028-48.322-35-153.594-52.175-261.958C12.649 203.726-6.975 71.785 2.622 56.828 12.2 41.9 92.391 23.946 158.15 13.109c60.86-10.029 136.114-18.4 147.9-8.992 1.895 1.512 7.659 6.114 21.741 87.335 8.378 48.325 17.577 111.557 25.9 178.048 14.7 117.392 28.767 264.923 20.041 294.363-.47 1.582-1.9 6.395-5.744 6.771-3.888.38-10.181.552-18.247.552zM89.429 547.759c18.7 8.673 242.8 21.284 277.982 17.908.327-.251 2.429-2.384 3.451-16.046 3.821-51.076-11.052-194.415-24.949-301.644C326.605 99 309.358 13.154 302.933 8.025c-8.248-6.586-68.795-2.371-143.97 10.017C76.324 31.661 13.765 48.72 6.83 59.527c-5.53 8.616 1.356 81.639 17.538 186.035 15.468 99.8 35.564 204.142 50.005 259.651 9.913 38.104 14.277 42.126 15.056 42.546z" fill="#3054e5"/><path d="M91.892 510.908c17.042 7.924 229.5-2.366 258.739-5.221 23.9-2.334-37.137-440.721-54.939-454.932-7.346-5.864-51.234-12.187-103.077-4.217-4.448.684-1.389 17.7-5.056 20.448-9.275 6.956-58.141 19.847-69.639 16.232-4.837-1.521-10.964-20.643-15.761-19.582C57.981 73.4 28.887 82.745 23.624 90.947 9.288 113.29 73.005 502.126 91.892 510.908z" fill="#AEF45D"/><path d="M141.213 516.364c-26.079 0-45.4-.876-50.375-3.189-2.377-1.1-5.6-4.95-11.442-25.087-11.725-40.388-29.062-130.221-43.141-223.54C28.986 216.37 13 102.876 21.52 89.6c3.433-5.351 15.472-14.117 80.1-28.4 4.382-.969 7.548 4.641 11.206 11.141 1.689 3 4.514 8.021 5.848 8.5 10.259 3.228 58.218-8.972 67.386-15.848.808-.853 1.061-5.722 1.2-8.337.318-6.126.619-11.911 4.979-12.582 49.948-7.681 96.285-2.236 105.016 4.733 1.676 1.338 6.773 5.408 19.016 70.989 7.276 38.968 15.259 89.906 22.48 143.43 13.349 98.974 24.978 213.657 17.564 238.667-.434 1.465-1.755 5.922-5.441 6.282-16.999 1.659-138.474 8.189-209.661 8.189zm-48.25-7.714c16.11 7.41 225.385-2.354 257.289-5.438.37-.336 2.446-2.856 3.125-17.506 2.147-46.323-10.906-160.756-22.737-244.675-16.425-116.5-31.069-183.981-36.508-188.322-6.032-4.818-47.595-11.879-100.832-3.747-.693 1.148-.912 5.373-1.046 7.946-.281 5.408-.524 10.078-3.19 12.078-9.418 7.059-59.374 20.554-71.894 16.614-3.178-1-5.738-5.547-8.7-10.813-1.7-3.023-4.523-8.037-5.946-8.672C44.742 78.9 28.865 87.408 25.728 92.3c-3.467 5.4-2.4 47.386 12 147.922C49.148 319.918 64.5 405.433 76.84 458.079c10.584 45.15 15.27 50.046 16.123 50.571z" fill="#AEF45D"/><g fill="#668bff"><path d="M307.769 12c-1.2-3.12-2.3-5.144-3.277-5.927C284.178-10.146 21.086 32.681 4.726 58.177 3.192 60.569 2.491 66.753 2.5 76 36.29 31.185 274.787-2.067 307.769 12z"/><path d="M2.5 78.5a2.529 2.529 0 0 1-.792-.128A2.5 2.5 0 0 1 0 76.005C-.012 62.5 1.491 58.59 2.622 56.827 12.2 41.9 92.391 23.946 158.15 13.109c60.86-10.029 136.114-18.4 147.9-8.992 1.367 1.092 2.616 3.246 4.051 6.986a2.5 2.5 0 0 1-3.315 3.2c-15.664-6.682-81.952-2.251-150.91 10.082C75.3 38.792 18.712 58.653 4.5 77.508a2.5 2.5 0 0 1-2 .992zM280.513 4.935c-25.7 0-70.211 4.648-121.55 13.107C76.324 31.661 13.765 48.72 6.83 59.527c-.439.684-1.337 2.918-1.687 9.918C33.118 43.616 118.085 26.061 155 19.459 219.421 7.936 279.85 3.417 302.926 8.019c-2.626-2.084-10.494-3.084-22.413-3.084z"/></g></svg></g><g transform="translate(1164.0 1404.0) rotate(0.0 83.0 49.0) scale(2.012535916491883 1.968148133271745)"><svg width="82.483" height="49.793" viewBox="0 0 82.483 49.793"><path d="M82.383 20.155C81.6 13.361 76.409 7.598 67.766 3.927 59.594.458 49.172-.77 38.427.469 15.357 3.128-1.478 15.94.101 29.638c1.387 12.032 16.45 20.167 35.728 20.167 2.67 0 5.422-.156 8.229-.48 23.07-2.659 39.905-15.471 38.326-29.169z" fill="#fff"/></svg></g><g transform="translate(1020.0 532.0) rotate(0.0 606.0 850.0) scale(2.0046311610982466 2.0016484163428707)"><svg width="604.6" height="849.3" viewBox="0 0 604.6 849.3"><path d="M604 233.6c-.4-.5-1.1-.9-1.8-.9-70.4-3.9-99.2-8.7-102.7-11.7-1.2-8.1 19.6-82.2 54.7-194.2.4-1.3-.3-2.6-1.5-3.1-24.6-9.3-52.3-17.5-80.1-23.7-1.3-.3-2.7.5-3 1.9-6 25.8-17.8 75.5-29.2 118.6-17.9 68.2-24 79.6-25.8 81.1C403.1 205 200.2 192.4 66 183c-1.3 0-2.4.8-2.6 2-4.3 23.8-8.8 49.5-13.3 76.5-.1.7 0 1.4.5 2s1.1.9 1.8.9c26.1 1.6 76.8 4.8 122.9 9.1 79.2 7.4 89.6 12.8 90.9 14.4 1.8 5-7 48.6-30.7 135.1-18.3 67-37.2 128.8-41.2 135.1-1 1.4-9.6 5.7-75.2 2.4-39.5-2-84.6-5.9-107.9-8.1-1.4-.1-2.6.9-2.7 2.2-3.6 31.8-6.5 60.6-8.6 85.6 0 .7.2 1.4.6 1.9.5.5 1.1.8 1.8.8 116.5 4.7 162.4 10.8 166.5 14.9 2.6 5.6-1.8 30.5-5.3 50.5-3.4 19-6.5 36.9-5.3 44.1 1.3 7.4 14 28.9 37.5 63.9.3.5.8.8 1.4 1 35.3 10.2 74.9 21.2 114.4 31.9h.7c.8 0 1.6-.4 2.1-1.1.6-.9.6-2.1 0-2.9-40.4-53.1-64.6-87.6-66.4-94.5-1.6-5.9 4.1-42.4 13.4-86.9 10.4-49.4 19-79.2 21.7-82.1 8.9-4.4 141.2-3.4 260.8-.6 1.2 0 2.3-.8 2.5-2 4.7-24 9.5-48.9 14.2-74.2.1-.7 0-1.5-.5-2.1s-1.2-.9-1.9-.9c-143.6-.3-237.5-3.2-246.2-7.6-1.2-5.3 5.1-40.2 19.8-98.2 14-55.2 25.6-91.7 28.9-95.9 8.3-1.7 97.7 6 229.2 19.5 1.3.1 2.5-.8 2.7-2.1 4.5-29 8.6-56.6 12.2-82.2 0-.7-.1-1.4-.5-1.9z" fill="#fff"/></svg></g><g transform="translate(774.0 562.0) rotate(-11.90255268157253 314.0 462.0) scale(5.283971392511569 5.321048085228909)"><svg width="118.85" height="173.65" viewBox="0 0 118.85 173.65"><path d="M72.282 171.15S7.917 106.085 3.257 77.193C-1.208 49.513 14.1 7.374 48.572 2.972c39.144-5 64.167 30.738 67.456 57.445 4.706 38.212-43.746 110.733-43.746 110.733z" fill="#ffa9d8"/><path d="M72.282 173.65a2.5 2.5 0 0 1-1.778-.742c-2.65-2.68-64.982-65.972-69.715-95.317-3-18.6 2.693-41.408 14.166-56.755C23.654 9.2 35.169 2.164 48.255.493A56.717 56.717 0 0 1 91.06 12.311c14.484 11.256 25.259 30.019 27.449 47.8C123.274 98.8 76.36 169.547 74.36 172.539a2.494 2.494 0 0 1-1.84 1.1c-.08.007-.159.011-.238.011zM55.8 5.008a54.583 54.583 0 0 0-6.907.444c-11.711 1.5-22.06 7.85-29.929 18.377C8.246 38.161 2.927 59.447 5.725 76.8c4.005 24.829 54.952 78.753 66.165 90.368 8.469-13.223 45.7-73.589 41.656-106.441-2.035-16.528-12.066-33.981-25.554-44.463A51.853 51.853 0 0 0 55.8 5.008z" fill="#ffa9d8"/><g fill="#fff"><ellipse cx="59.425" cy="58.305" rx="21.017" ry="19.837" transform="matrix(.70710678 -.70710678 .70710678 .70710678 -23.823 59.097)"/><path d="M58.228 81.24A21.591 21.591 0 0 1 42.8 74.933c-8.708-8.709-8.334-23.254.835-32.423s23.714-9.543 32.423-.834a21.641 21.641 0 0 1 6.3 16.111A24.02 24.02 0 0 1 75.219 74.1a24.012 24.012 0 0 1-16.312 7.13c-.227.007-.454.01-.679.01zm2.381-40.863a19.072 19.072 0 0 0-13.443 5.669c-7.219 7.219-7.593 18.592-.834 25.352a16.642 16.642 0 0 0 12.431 4.834 19.41 19.41 0 0 0 18.59-18.59 16.536 16.536 0 0 0-16.744-17.265z"/></g></svg></g><g transform="translate(614.0 1552.0) rotate(0.0 331.0 569.0) scale(1.997778904420463 1.9988161668748035)"><svg width="331.368" height="569.337" viewBox="0 0 331.368 569.337"><g fill="#ffd04d"><path d="M285.472 78.008c7.092-2.263 15.327-20.883 18.539-28.784 4.795-11.795 9.899-28.01 8.502-34.885-.594-2.924-3.041-5.375-7.478-7.494-14.165-6.761-47.348-8.857-55.167-4.79-4.568 2.377-10.158 9.309-14.951 18.544-4.973 9.58-7.825 19.195-7.825 26.379 0 4.714 3.442 9.619 10.23 14.578 12.02 8.781 34.158 16.887 44.663 16.887 1.378 0 2.559-.14 3.487-.436zM328.1 520.203c-2.639-7.564-6.418-15.483-9.862-20.666-3.087-4.646-5.563-6.719-8.027-6.719-3.68 0-19.205 3.407-32.571 7.148-28.654 8.021-31.04 12.426-31.824 13.874-3.829 7.07-4.861 37.216.652 49.201 1.602 3.481 3.729 5.529 6.325 6.088.638.138 1.394.201 2.25.201 10.155 0 34.293-8.976 39.377-10.91 30.172-11.482 35.432-17.486 36.292-19.534 1.764-4.197-.447-12.477-2.613-18.683zm-203.137-46.705c-8.013 0-27.223 19.348-35.042 31.5-3.745 5.821-4.915 9.793-3.681 12.502 2.628 5.77 23.584 18.023 29.944 21.642 7.725 4.395 25.595 14.131 32.234 14.131.424 0 .804-.04 1.131-.123 3.88-.991 9.528-8.267 13.583-14.196 5.416-7.919 10.103-16.635 12.537-23.317 2.4-6.585 2.626-11.098.693-13.795-6.266-8.742-41.813-28.344-51.4-28.344zM49.568 360.065c-14.297 1.455-44.342 8.69-48.582 15.672-1.694 2.789-1.868 11.77 6.92 38.715 3.812 11.688 11.362 32.357 15.481 35.693.826.669 1.857 1.007 3.145 1.007 1.958 0 4.508-.781 7.831-2.366 6.706-3.198 16.215-9.561 24.818-16.606 9.917-8.121 14.945-14 14.945-17.477 0-7.153-6.36-47.432-11.572-53.043-1.224-1.317-3.726-2.538-12.987-1.595zM88.925 223.53c-8.766-5.022-23.563-12.495-28.401-12.495-1.537 0-6.214 0-22.495 29.069-5.385 9.614-15.568 29.234-15.568 34.674 0 2.955 2.836 5.74 8.927 8.766 9.116 4.528 27.593 9.973 39.009 9.973 3.59 0 6.483-.539 8.166-1.814 6.854-5.198 33.715-38.668 33.715-47.965 0-4.531-7.857-11.33-23.353-20.208zm128.312-95.415c-9.811-9.047-31.849-24.526-38.403-22.671-4.539 1.283-18.756 12.79-26.44 19.387-6.408 5.5-21.524 18.905-23.484 24.559-.662 1.909-.114 4.119 1.629 6.568 7.404 10.405 38.712 27.955 47.502 27.955 7.312 0 24.282-13.199 27.609-15.845 4.724-3.755 20.247-16.577 21.686-23.877.759-3.851-2.544-9.109-10.098-16.076z"/></g></svg></g><g transform="translate(1032.0 314.0) rotate(-4.778924675036679 -252.0 179.0) scale(-2.3536663958082324 2.3531422336446757)"><svg width="214.134" height="152.137" viewBox="0 0 214.134 152.137"><g fill="#FFDE8A"><path d="M80.144 79.849c-1.585-9.68 17.977-71.922 25.821-76.041 10.941-5.743 63.422 8.47 65.68 22.262 1.551 9.471-53.914 66.732-63.205 69.9s-26.711-6.441-28.296-16.121z"/><path d="M104.365 99.093c-5.228 0-10.886-2.19-15.053-4.687-6.469-3.876-10.818-9.167-11.635-14.153-1.077-6.553 5.445-29.038 9.466-41.289C91.3 26.286 99.13 4.573 104.8 1.6c8.833-4.637 37.81 1.768 54.458 10.069 9.073 4.523 14.071 9.235 14.851 14 1.063 6.49-14.736 25.021-28.176 39.423-13.671 14.649-30.982 31.3-36.688 33.249a15.1 15.1 0 0 1-4.88.752zm9.242-94.083c-2.915 0-5.172.325-6.48 1.012-1.827.959-7.578 11.173-15.234 34.5-6.538 19.921-9.853 35.433-9.282 38.922.573 3.5 4.126 7.589 9.271 10.673 5.636 3.377 11.968 4.78 15.75 3.488 3.394-1.158 17.511-13.593 34.4-31.663 20.309-21.729 27.359-33.124 27.143-35.481-.483-2.949-4.911-6.717-12.145-10.324C143.246 9.266 124.14 5.01 113.607 5.01zM136.722 127c3.367-7.758 63.628-41.771 71.141-35.594s2.194 42.849-2.114 51.489c-3.063 6.144-51.561 9.219-60.9 4.306-4.849-2.551-11.495-12.442-8.127-20.201z"/><path d="M165.26 152.148c-9.552 0-17.959-.831-21.573-2.733-5.573-2.933-13.322-14.049-9.258-23.41 3.386-7.8 47.322-32.764 65.294-37.1 4.767-1.149 7.858-.969 9.728.568 9.19 7.557 2.822 45.938-1.464 54.537-.821 1.644-2.726 2.874-6.18 3.988-7.923 2.557-23.331 4.15-36.547 4.15zM205 93.16a24.517 24.517 0 0 0-6.779 1.346c-19.925 6.117-57.043 28.5-59.209 33.49-2.717 6.26 2.994 14.886 7 16.994 8.954 4.711 53.993.867 57.527-3.27 4.691-9.524 8.315-43.793 2.733-48.382A2.906 2.906 0 0 0 205 93.16zM44.875 5.086C53.89 7.31 55.759 81.5 49.321 86.207c-3.936 2.877-13.544 5.657-18.4 3.731-9.009-3.574-31.554-51.39-28.056-59.749C8.271 17.272 36.919 3.124 44.875 5.086z"/><path d="M34.933 93.074A13.521 13.521 0 0 1 30 92.262C23.049 89.505 12.251 68.845 6.69 55.63 2.759 46.293-1.495 34.132.559 29.224 6.39 15.293 36.356.409 45.473 2.659c3.148.777 5.314 4.992 7.025 13.669 2.039 10.338 3.238 26.417 3.129 41.96-.185 26.542-3.681 29.1-4.83 29.937-3.297 2.408-10.15 4.849-15.864 4.849zm8.1-85.688c-8.078 0-33.033 12.23-37.861 23.768-.58 1.385-.045 7.876 6.126 22.537C18.973 71.924 28.285 86.2 31.842 87.614c3.617 1.435 12.284-.752 15.946-3.382 2.88-3.391 4.264-37.094.692-61.683C46.644 9.912 44.472 7.73 44.186 7.493a5.455 5.455 0 0 0-1.148-.107z"/></g></svg></g></svg>