<svg height="1032.633" viewBox="0 0 763.183 1032.633" width="763.183" xmlns="http://www.w3.org/2000/svg"><path d="m4.003 83.2c13.327-15.909 739.037-93.383 753.726-78.907 14.688 14.476-29.389 957.88-44.555 971.432s-608.285 68.789-625.775 50.866c-17.491-17.923-96.723-927.483-83.396-943.391z" fill="#f6f6f6"/><path d="m123.982 1032.646c-34.168 0-36.938-2.838-38.373-4.309-1.857-1.903-6.791-6.959-22.979-154.202-9.306-84.635-20.307-198.2-30.977-319.776-10.573-120.47-19.521-233.901-25.196-319.398-9.754-146.941-5.981-151.444-4.37-153.367l1.916 1.605-1.916-1.605c1.399-1.67 4.676-5.582 93.55-17.968 52.229-7.279 122.653-15.915 203.659-24.975 141.203-15.792 322.887-33.597 410.473-37.776 45.832-2.187 48.263.207 49.715 1.637 1.893 1.865 5.832 5.747 2.296 150.446-3.181 130.189-11.511 329.895-21.223 508.773-4.843 89.199-9.604 165.003-13.771 219.216-7.093 92.305-10.25 95.127-11.946 96.643-1.502 1.342-6.071 5.425-103.091 16.804-57.692 6.767-134.371 14.442-210.374 21.058-81.453 7.091-156.327 12.473-210.83 15.156-30.103 1.482-51.417 2.04-66.563 2.04zm-118.01-947.855c-4.942 12.289 8.256 214.08 30.817 470.889 23.065 262.558 45.117 459.886 52.434 469.202 1.43 1.232 13.15 5.084 101.86.691 54.323-2.69 128.807-8.05 209.729-15.093 159.837-13.911 301.51-30.594 310.596-36.553 1.596-2.865 6.11-24.274 14.89-156.73 5.807-87.594 12.143-203.628 17.842-326.729 12.435-268.583 17.354-471.443 11.772-484.373-3.017-1.292-21.449-3.068-122.906 4.896-67.291 5.282-157.185 13.778-253.123 23.925-203.911 21.565-364.106 42.942-373.911 49.875z" fill="#f6f6f6"/><ellipse cx="202.593" cy="224.091" fill="#ffd04d" rx="117.472" ry="112.502" transform="matrix(.99984647 -.01752221 .01752221 .99984647 -3.894 3.583)"/><path d="m202.383 339.096c-65.14 0-118.645-50.212-119.744-112.903-1.11-63.403 51.798-115.927 117.939-117.086 32.016-.559 62.339 10.858 85.371 32.155 23.062 21.324 36.059 49.994 36.598 80.728 1.11 63.403-51.798 115.927-117.939 117.086-.743.013-1.484.019-2.225.019zm.444-225.009c-.721 0-1.439.006-2.161.019-63.386 1.11-114.09 51.353-113.027 111.999 1.051 59.961 52.325 107.987 114.746 107.991.712 0 1.419-.006 2.135-.019 63.386-1.11 114.09-51.353 113.027-111.999-.514-29.358-12.941-56.755-34.992-77.145-21.563-19.938-49.802-30.846-79.728-30.846z" fill="#ffd04d"/><path d="m226.978 273.989-5.735-22.17c15.386-9.978 24.406-34.849 23.118-56.777-1.803-30.694-24.738-54.315-51.226-52.759s-46.498 27.701-44.695 58.395c1.434 24.409 12.373 48.601 31.693 54.959l-2.877 21.206s-38.775 4.259-46.786 11.779c-2.96 2.779-6.231 9.461-8.831 17.098 21.548 19.6 50.84 31.417 82.925 30.855 32.288-.566 61.311-13.558 82.189-34.124-3.213-7.377-7.053-13.946-10.013-16.56-7.502-6.628-49.762-11.903-49.762-11.903z" fill="#3054e5"/><path d="m202.365 339.096c-30.819 0-60.006-11.147-82.41-31.525-.736-.67-1.005-1.713-.684-2.655 1.386-4.07 5.084-13.982 9.487-18.115 7.587-7.122 37.664-11.183 46.281-12.217l2.344-17.282c-21.204-8.378-30.201-35.387-31.44-56.476-.907-15.443 3.442-30.285 12.249-41.79 8.891-11.616 21.247-18.451 34.795-19.247 27.835-1.633 51.987 23.087 53.869 55.108 1.373 23.375-8.128 47.366-22.756 57.991l4.874 18.838c8.74 1.15 42.195 5.91 49.42 12.294 3.109 2.746 7.091 9.264 10.65 17.435.413.948.199 2.053-.538 2.779-22.243 21.91-52.039 34.284-83.899 34.843-.748.013-1.496.02-2.242.02zm-77.817-34.123c21.839 19.302 50.193 29.625 79.972 29.104 29.984-.525 58.052-11.945 79.239-32.202-3.012-6.609-6.346-12.052-8.675-14.109-5.043-4.456-32.373-9.294-48.416-11.296-1.018-.127-1.854-.862-2.11-1.855l-5.735-22.17c-.27-1.041.157-2.138 1.06-2.724 13.832-8.97 23.282-32.414 21.982-54.533-1.72-29.27-23.512-51.887-48.584-50.41-12.073.709-23.125 6.851-31.117 17.295-8.078 10.553-12.065 24.211-11.228 38.458 1.277 21.757 11.043 46.499 29.978 52.731 1.145.377 1.858 1.517 1.696 2.711l-2.876 21.206c-.154 1.137-1.063 2.024-2.204 2.149-10.556 1.16-39.279 5.419-45.349 11.117-2.279 2.139-5.152 7.629-7.633 14.527z" fill="#3054e5"/><path d="m376.998 105.512c7.243-9.018 309.953-31.941 315.787-27.523 5.835 4.418 4.281 45.756-.104 49.832s-312.568 30.054-315.787 25.952c-3.219-4.103-7.139-39.243.104-48.261z" fill="#3054e5"/><path d="m382.132 156.708c-1.641 0-2.936-.035-3.86-.107-1.313-.103-2.556-.278-3.344-1.283-3.703-4.72-8.002-41.255.121-51.37 1.189-1.482 3.181-3.961 53.244-9.645 27.437-3.115 65.409-6.695 106.924-10.081 38.386-3.131 77.255-5.886 106.642-7.559 49.587-2.822 51.303-1.524 52.436-.666.963.729 3.893 2.947 4.637 17.66.534 10.581-.25 32.001-4.547 35.996-.945.879-2.121 1.972-48.957 6.685-27.087 2.725-63.395 6.027-102.232 9.296-67.701 5.699-140.721 11.074-161.063 11.074zm-3.611-5.084c8.457.906 71.753-3.261 156.525-10.325 82.911-6.908 149.214-13.513 156.096-15.533 1.892-3.046 3.836-20.913 2.55-35.417-.647-7.3-1.834-9.578-2.261-10.178-6.828-1.241-70.169 2.042-156.228 9.068-101.589 8.293-151.606 14.987-156.367 17.98-5.95 7.827-2.951 38.616-.315 44.405z" fill="#3054e5"/><g fill="#aef45d"><path d="m384.747 206.82c3.499-4.834 200.184-15.499 203.615-11.082s2.982 31.644-.696 35.799-194.613 9.886-198.672 7.243-7.746-27.126-4.247-31.96z"/><path d="m406.281 241.956c-16.995 0-17.896-.589-18.651-1.08-2.271-1.479-4.126-6.018-5.514-13.491-.32-1.727-3.025-17.013.605-22.03.99-1.367 2.646-3.656 71.423-8.12 38.863-2.523 82.391-4.512 108.312-4.949 26.058-.441 26.897.654 27.881 1.92 4.271 5.497 3.689 33.92-.798 38.99-.974 1.1-1.98 2.238-33.749 4.095-17.395 1.017-41.271 2.053-67.233 2.917-24.489.815-49.017 1.414-67.293 1.641-6.035.075-10.961.108-14.982.108zm-16.075-5.426c5.355.898 48.521.328 97.747-1.305 61.48-2.041 93.537-4.336 98.075-5.667 2.533-4.163 2.97-27.115.638-31.829-13.583-3.08-187.801 6.422-200.117 10.933-2.273 4.593.921 24.829 3.657 27.868z"/><path d="m396.237 282.26c3.809-3.1 157.894-14.283 163.688-8.691s8.664 26.729 4.718 30.725c-3.946 3.997-157.876 14.062-161.775 10.14-3.898-3.922-10.441-29.074-6.632-32.174z"/><path d="m414.772 317.825c-12.06 0-12.845-.791-13.677-1.628-3.851-3.874-8.924-22.123-8.481-30.51.14-2.639.789-4.343 2.045-5.365.839-.683 1.988-1.618 27.716-4.002 15.41-1.428 35.386-2.944 54.806-4.159 15.2-.951 37.117-2.161 55.209-2.528 26.498-.537 28.168 1.072 29.272 2.137 4.438 4.284 7.197 15.601 7.3 24.068.062 5.008-.793 8.445-2.539 10.213-.921.933-3.078 3.118-63.512 7.484-29.205 2.11-67.63 4.255-87.639 4.29-.168 0-.336 0-.5 0zm-10.398-5.453c10.554 2.61 148.301-6.093 158.639-10.03.413-.673.996-2.611.95-6.443-.097-7.932-2.709-17.345-5.628-20.385-3.579-1.488-29.808-1.556-80.873 1.639-41.905 2.622-74.794 5.805-79.64 7.158-1.565 3.79 3.118 23.826 6.552 28.061z"/><path d="m93.08 412.197c6.409-5.84 344.759-33.016 352.001-26.074 7.243 6.942 12.371 35.798 7.243 42.008-5.129 6.21-356.396 30.448-359.244 24.626s-6.409-34.72 0-40.56z"/><path d="m104.786 456.144c-4.609 0-8.027-.11-10.034-.348-1.595-.188-3.21-.494-3.919-1.941-2.678-5.476-7.387-36.262.563-43.506 1.09-.993 2.913-2.655 58.121-8.154 32.175-3.205 75.57-6.967 119.059-10.321 45.916-3.542 88.258-6.356 119.225-7.924 55.683-2.819 57.688-.902 59.011.368 7.772 7.449 13.829 37.67 7.441 45.405-1.074 1.301-2.411 2.919-55.606 7.82-30.371 2.798-71.561 6.054-115.981 9.168-69.278 4.857-148.221 9.433-177.878 9.433zm-9.825-5.338c9.336 1.591 82.939-1.881 177.924-8.428 96.376-6.643 170.515-13.384 177.73-16.142 3.452-5.393-.471-31.32-7.05-38.097-6.921-2.273-78.548 1.303-175.055 8.754-91.439 7.059-167.399 14.624-173.908 17.308-4.438 4.66-2.437 29.229.358 36.605z"/><path d="m126.397 515.442c4.573-2.57 37.717-5.825 40.56 0 2.842 5.825 5.657 30.487 0 35.21-5.657 4.722-42.056 6.736-45.318 2.056s.186-34.696 4.758-37.266z"/><path d="m137.07 557.849c-3.654 0-6.994-.171-9.608-.522-4.311-.578-6.739-1.562-7.875-3.19-3.196-4.586-1.341-21.999.596-30.458 1.772-7.744 3.598-9.635 4.989-10.417 4.454-2.504 29.538-5.327 39.392-2.252 2.391.746 3.908 1.837 4.64 3.336 2.927 5.997 6.425 32.323-.645 38.225-4.109 3.43-19.487 5.279-31.488 5.279zm-13.422-6.635c1.255.988 8.498 2.115 20.396 1.453 11.548-.642 19.599-2.507 21.31-3.936 3.948-3.295 2.334-26.091-.645-32.194-.488-.613-4.892-2.361-17.905-1.718-9.547.471-17.51 1.922-19.135 2.775-1.021.921-3.031 6.753-4.172 16.524-1.128 9.661-.585 15.831.151 17.095z"/></g><path d="m204.195 509.981c4.433-3.259 326.91-24.279 330.697-19.941 3.786 4.338 4.085 34.805 0 39.157s-319.545 24.707-324.479 21.372c-4.933-3.335-10.651-37.329-6.218-40.588z" fill="#3054e5"/><path d="m217.124 553.425c-6.952 0-7.564-.415-8.111-.784-5.087-3.439-8.705-24.441-8.899-34.276-.115-5.783.688-8.99 2.602-10.397.917-.674 2.173-1.598 54.299-5.579 30.64-2.34 71.687-5.154 112.616-7.721 43.658-2.738 83.612-4.974 112.502-6.297 52.525-2.404 53.504-1.278 54.644.026 4.844 5.549 4.799 37.334-.061 42.511-1.034 1.101-2.103 2.24-53.349 6.425-28.987 2.367-68.136 5.182-110.232 7.927-41.555 2.709-80.759 5.013-110.39 6.485-25.555 1.27-38.715 1.679-45.62 1.679zm-5.511-5.126c7.15.953 75.506-2.443 160.92-8.01 86.896-5.664 153.737-11.127 160.777-13.125 2.669-4.303 2.652-30.033.022-34.991-8.025-1.163-73.253 1.824-164.371 7.546-83.585 5.249-155.566 10.73-163.291 12.412-.731 1.7-.986 8.253.699 18.395 1.688 10.153 4.024 16.354 5.243 17.772z" fill="#3054e5"/><path d="m121.638 617.878c5.133-4.785 39.327-10.536 45.318-6.547s12.793 33.918 9.392 38.479c-3.401 4.562-39.607 8.585-44.33 4.562-4.722-4.024-15.514-31.709-10.381-36.494z" fill="#aef45d"/><path d="m142.513 658.538c-5.162 0-10.073-.522-12.115-2.263-4.596-3.916-12.381-23.114-12.607-33.234-.073-3.292.627-5.579 2.143-6.992 5.969-5.564 41.298-11.534 48.408-6.799 5.276 3.513 9.151 18.779 10.464 26.361 1.406 8.125 1.254 13.405-.453 15.694-2.731 3.663-15.298 5.581-22.545 6.397-3.096.349-8.313.836-13.295.836zm-19.17-38.831c-.213.198-.601 1.126-.554 3.223.21 9.421 7.916 27.04 10.851 29.54 3.789 2.873 37.293-.565 40.732-4.187 2.22-3.57-3.769-31.519-8.802-34.87-1.425-.948-8.247-1.632-21.213.373-11.003 1.702-19.325 4.347-21.015 5.922z" fill="#aef45d"/><path d="m214.363 613.515c5.809-3.882 289.391-26.286 293.473-21.487s4.314 40.893 0 44.097-286.688 20.697-293.473 18.247c-6.784-2.45-5.809-36.975 0-40.857z" fill="#3054e5"/><path d="m219.563 657.044c-3.314 0-5.436-.099-6.048-.32-3.077-1.111-5.006-5.2-5.896-12.501-1.182-9.693-.402-28.939 5.355-32.786.914-.611 2.619-1.749 48.888-6.08 27.141-2.541 63.479-5.578 99.695-8.333 38.492-2.928 73.787-5.309 99.382-6.705 46.564-2.539 47.651-1.263 48.801.089 4.03 4.739 4.309 26.822 3.117 37.267-.865 7.586-2.342 9.573-3.53 10.457-.94.698-2.111 1.567-48.024 5.033-26.257 1.982-61.46 4.361-99.122 6.698-21.143 1.312-117.123 7.18-142.618 7.18zm-4.399-5.052c11.467 1.792 276.55-14.641 291.24-18.019.942-1.674 2.167-8.738 2.076-20.02-.087-10.854-1.323-17.83-2.276-19.854-7.556-1.252-66.623 1.989-145.655 8.015-74.784 5.702-139.368 11.755-144.916 13.572-1.995 1.749-4.254 13.911-3.264 25.83.637 7.661 2.287 10.129 2.795 10.476z" fill="#3054e5"/><path d="m136.813 709.348c5.175-4.301 34.541-5.712 39.535-1.092 4.994 4.619 12.83 30.91 9.437 35.563-3.393 4.652-44.177 11.613-48.972 7.871-4.794-3.743-5.175-38.04 0-42.341z" fill="#aef45d"/><path d="m143.643 755.256c-4.206 0-7.006-.532-8.367-1.595-3.837-2.995-4.585-14.918-4.689-21.758-.072-4.779.046-20.666 4.63-24.476 5.91-4.911 36.84-6.548 42.83-1.005 3.271 3.026 6.663 12.089 8.574 18.932 1.986 7.114 3.804 16.347 1.185 19.939-3.597 4.933-27.305 8.376-29.996 8.752-5.774.808-10.504 1.211-14.166 1.211zm16.515-47.363c-1.093 0-2.232.02-3.418.063-9.739.354-16.712 1.972-18.328 3.315-.922.766-2.496 5.734-2.793 15.803-.356 12.11 1.36 21.359 2.749 22.658 1.336.794 9.42.956 23.036-1.294 13.434-2.219 21.305-4.971 22.395-6.133 2.233-3.424-4.749-28.146-9.146-32.213-1.234-1.142-6.599-2.199-14.494-2.199z" fill="#aef45d"/><path d="m223.487 706.072c4.556-3.346 348.248-22.748 352.184-18.247s3.935 36.682 0 41.056-338.885 22.751-346.102 19.532c-7.217-3.218-10.639-38.995-6.082-42.341z" fill="#3054e5"/><path d="m238.454 751.223c-5.548 0-9.082-.16-9.903-.526-6.113-2.726-8.389-18.063-9.084-24.531-.605-5.642-1.571-19.09 2.54-22.109.939-.69 2.227-1.635 57.709-5.375 32.601-2.197 76.324-4.812 119.96-7.172 46.495-2.516 89.06-4.54 119.853-5.701 55.857-2.105 56.863-.958 58.024.371 4.778 5.465 4.761 39.056-.023 44.373-1.015 1.128-2.064 2.295-56.404 6.171-30.688 2.189-72.287 4.77-117.136 7.266-24.275 1.351-131.887 7.233-165.535 7.233zm-7.972-5.148c13.583 2.658 327.239-14.938 343.585-19.231 2.724-4.697 2.728-31.85.039-36.897-8.252-1.283-77.783 1.333-175.116 6.607-89.424 4.845-166.296 10.014-174.081 11.686-1.466 2.687-1.511 16.101 1.274 27.848 1.624 6.849 3.415 9.46 4.299 9.987z" fill="#3054e5"/></svg>